<svg width="86" height="71" viewBox="0 0 86 71" fill="none" xmlns="http://www.w3.org/2000/svg">
<path d="M47.7433 66.1502C50.9335 69.2588 55.2223 71 59.689 71C74.2204 71 86.0004 58.1841 86.0004 42.3828C86.0004 26.5816 74.2204 13.7722 59.689 13.7722L26.7314 13.7566C29.7037 21.9819 37.5645 27.4538 46.3547 27.4163L59.689 27.3593C67.3195 27.3593 73.5051 34.0856 73.5051 42.3828C73.5051 50.6801 67.3195 57.4064 59.689 57.4064L38.7768 57.4128L47.7433 66.1502Z" fill="#E8F9FF"/>
<path d="M59.6886 70.9999C55.2218 70.9999 50.9331 69.2587 47.7429 66.15L38.7764 57.4127L59.6886 57.4062V70.9999Z" fill="url(#paint0_linear_306_669)"/>
<path opacity="0.5" d="M59.689 20.5787C59.689 24.3283 56.6406 27.3724 52.8696 27.3885L46.3547 27.4163C37.5645 27.4538 29.7037 21.9819 26.7314 13.7566L52.8434 13.7689C56.6247 13.7707 59.689 16.8191 59.689 20.5787Z" fill="url(#paint1_linear_306_669)"/>
<path d="M37.6437 13.8551H12.4952V44.4538H26.4137C35.0087 44.4538 43.0917 48.5171 48.1873 55.3993L49.7281 57.4805H0V0L18.2634 0.23074C26.9388 0.340344 34.6472 5.75933 37.6437 13.8551Z" fill="white"/>
<defs>
<linearGradient id="paint0_linear_306_669" x1="58.9753" y1="55.2325" x2="41.768" y2="56.7088" gradientUnits="userSpaceOnUse">
<stop stop-color="#29BDF2" stop-opacity="0"/>
<stop offset="1" stop-color="#29BDF2"/>
</linearGradient>
<linearGradient id="paint1_linear_306_669" x1="57.2112" y1="13.1243" x2="31.8116" y2="15.7869" gradientUnits="userSpaceOnUse">
<stop stop-color="#29BDF2" stop-opacity="0"/>
<stop offset="1" stop-color="#29BDF2"/>
</linearGradient>
</defs>
</svg>
